# xmcd CD database file
#
# Track frame offsets:
#	150
#	16461
#	31847
#	49831
#	64434
#	86374
#	100790
#	115770
#	135152
#	152358
#	169263
#	200133
#
# Disc length: 2919 seconds
#
# Revision: 5
# Processed by: cddbd v1.5.2PL0 Copyright (c) Steve Scherf et al.
# Submitted via: CDex 1.51
#
DISCID=940b650c
DTITLE=Omar and The Howlers - Southern Style
DYEAR=1996
DGENRE=Blues
TTITLE0=Ton of Blues
TTITLE1=I Want You
TTITLE2=Snake Rhythm Rock
TTITLE3=Bessie Mae
TTITLE4=Full Moon On Main Street
TTITLE5=Pot Of Gold
TTITLE6=You Keep Watchin' Me
TTITLE7=Run For The Levee
TTITLE8=Burn It To The Ground
TTITLE9=Judgment Day
TTITLE10=Angel Blues
TTITLE11=Think It's Time To Go
EXTD=YEAR: 1996
EXTT0=
EXTT1=
EXTT2=
EXTT3=
EXTT4=
EXTT5=
EXTT6=
EXTT7=
EXTT8=
EXTT9=
EXTT10=
EXTT11=
PLAYORDER=
